<svg width="12" height="12" viewBox="0 0 12 12" xmlns="http://www.w3.org/2000/svg">
  <path
    d="M8.5 2H7.9C7.7 1.4 7.15 1 6.5 1H5.5C4.85 1 4.3 1.4 4.1 2H3.5C2.65 2 2 2.65 2 3.5V9.5C2 10.35 2.65 11 3.5 11H8.5C9.35 11 10 10.35 10 9.5V3.5C10 2.65 9.35 2 8.5 2ZM5 2.5C5 2.2 5.2 2 5.5 2H6.5C6.8 2 7 2.2 7 2.5V3H5V2.5ZM6.5 8H4.5C4.2 8 4 7.8 4 7.5C4 7.2 4.2 7 4.5 7H6.5C6.8 7 7 7.2 7 7.5C7 7.8 6.8 8 6.5 8ZM7.5 6H4.5C4.2 6 4 5.8 4 5.5C4 5.2 4.2 5 4.5 5H7.5C7.8 5 8 5.2 8 5.5C8 5.8 7.8 6 7.5 6Z"
  ></path>
</svg>