<svg width="16" height="16" viewBox="0 0 16 16" fill="none" xmlns="http://www.w3.org/2000/svg">
  <path
    d="M14.2729 5.72313H13.8887V3.86936C13.8887 3.85771 13.8869 3.84615 13.8854 3.83436C13.8848 3.76075 13.8614 3.68845 13.811 3.63125L10.7261 0.107218C10.7252 0.106318 10.7243 0.105998 10.7236 0.105098C10.7052 0.0845605 10.6838 0.0673928 10.6611 0.0526942C10.6544 0.0481045 10.6477 0.0443572 10.6406 0.0404357C10.621 0.0298039 10.6002 0.0208278 10.5787 0.0144081C10.5729 0.0128685 10.5677 0.0104865 10.5619 0.00888887C10.5386 0.00345678 10.5144 0 10.4899 0H2.90838C2.56218 0 2.28093 0.281568 2.28093 0.627479V5.72298H1.89682C1.40157 5.72298 1 6.12438 1 6.61971V11.2832C1 11.7783 1.40157 12.1801 1.89682 12.1801H2.28096V15.3725C2.28096 15.7184 2.5622 16 2.90841 16H13.2613C13.6072 16 13.8888 15.7184 13.8888 15.3725V12.1801H14.273C14.7681 12.1801 15.1697 11.7785 15.1697 11.2834V6.61989C15.1697 6.12455 14.7681 5.72313 14.2729 5.72313ZM2.90838 0.627595H10.1761V3.83776C10.1761 4.01109 10.3168 4.15148 10.4899 4.15148H13.2613V5.72324H2.90838V0.627595ZM11.8922 10.5732H11.1339L11.083 9.22348C11.0677 8.79943 11.0524 8.28707 11.0524 7.7741H11.0373C10.9301 8.22392 10.7876 8.72637 10.655 9.13982L10.238 10.5157H9.63232L9.26558 9.1504C9.15374 8.73709 9.03641 8.23467 8.95493 7.77425H8.94482C8.92428 8.25056 8.90898 8.7947 8.88382 9.23403L8.82241 10.5735H8.10459L8.32347 7.04713H9.35688L9.69294 8.22421C9.80016 8.63229 9.9068 9.07194 9.9834 9.48539H9.99853C10.0957 9.07714 10.2122 8.61178 10.3245 8.2193L10.6909 7.0471H11.7041L11.8922 10.5732ZM5.15203 7.71653V7.04673H7.78877V7.71653H6.85228V10.5732H6.07316V7.71653H5.15203ZM2.68189 9.09788V10.5732H1.90341V7.04673H2.68189V8.40196H3.95999V7.04673H4.73399V10.5732H3.95999V9.0977H2.68189V9.09788ZM13.2613 15.2027H2.90838V12.1801H13.2613V15.2027H13.2613ZM14.632 10.5732H12.4886V7.04673H13.2675V9.90334H14.632V10.5732H14.632Z"
    fill="currentColor"></path>
</svg>